<svg xmlns="http://www.w3.org/2000/svg" viewBox="0 0 370 40.69"><defs><style>.a374e726-6a46-4038-a984-28f10ed83965{fill:#ec1d23;}.b3f2ce53-e8ae-4643-ad98-effe30559312{fill:#f2f2f2;}</style></defs><g id="be9423e3-bca4-4d3b-876c-7974dbc14b69" data-name="Capa 2"><g id="fbd97c6a-1225-453f-b243-edce6f84c526" data-name="Capa 1"><path class="a374e726-6a46-4038-a984-28f10ed83965" d="M41.25,23.08H27.08c-.37,0-.38,0-.38.37V40.27c0,.42,0,.42-.41.42H7.44c-.57,0-1.14,0-1.71,0-.37,0-.37,0-.37-.37,0-5.48,0-11,0-16.43a1,1,0,0,1,.4-.88c1.35-1.18,2.67-2.39,4-3.58l4.57-4.06,3.92-3.5,4.11-3.66a1.08,1.08,0,0,1,1.06-.36,1.9,1.9,0,0,1,.59.33c1.13,1,2.25,1.92,3.37,2.88l4.11,3.55,4.79,4.09,3.26,2.81,1.63,1.39.12.07Z"></path><path class="a374e726-6a46-4038-a984-28f10ed83965" d="M44.29,21.1c-.45.13-.82-.14-1.2-.48-.87-.78-1.78-1.51-2.67-2.27l-2.91-2.51-3.41-2.9-3-2.55L28.39,8c-.77-.68-1.55-1.35-2.34-2-.39-.33-.8-.67-1.22-1a2.7,2.7,0,0,0-1.77-.55A3.25,3.25,0,0,0,21.63,5a20.72,20.72,0,0,0-2.56,2.1c-1.28,1.11-2.54,2.23-3.8,3.36l-2.95,2.65c-.84.76-1.7,1.51-2.55,2.27L7.14,17.75,4.4,20.21c-.27.24-.53.49-.81.71a.7.7,0,0,1-.43.17,9,9,0,0,1-1.27,0A2,2,0,0,1,0,19.21a1.9,1.9,0,0,1,.76-1.63l5.08-4.37,4.6-4L14,6.2c1.78-1.53,3.56-3.05,5.33-4.59A6.49,6.49,0,0,1,21.26.41,6.57,6.57,0,0,1,24,0a5.62,5.62,0,0,1,2.72.85,18.54,18.54,0,0,1,1.85,1.46L32.88,6l4,3.46,4.73,4,2.72,2.35,2,1.72A1.85,1.85,0,0,1,47,19.56a2,2,0,0,1-1.14,1.32A3.49,3.49,0,0,1,44.29,21.1Z"></path><path class="b3f2ce53-e8ae-4643-ad98-effe30559312" d="M35.08,33.3c0-1.2,0-2.4,0-3.6a3.46,3.46,0,0,1,.53-1.87,2.41,2.41,0,0,1,1.46-1,4.29,4.29,0,0,1,2.25,0,2.45,2.45,0,0,1,1.83,1.8,8.56,8.56,0,0,1,.18,2.26c0,.75.05.66-.65.66h-.9c-.21,0-.31-.1-.3-.31,0-.52,0-1,0-1.55a2.16,2.16,0,0,0-.24-.82.87.87,0,0,0-.76-.46,1.18,1.18,0,0,0-1.18.4,1.64,1.64,0,0,0-.3,1c0,1.72,0,3.44,0,5.15,0,.69,0,1.39,0,2.08a2.33,2.33,0,0,0,.16.73,1,1,0,0,0,1,.64,1.1,1.1,0,0,0,1.17-.6,2.07,2.07,0,0,0,.14-.69c0-.73,0-1.45,0-2.17,0-.3,0-.33.3-.34.44,0,.88,0,1.32,0,.15,0,.23.07.23.22,0,1,0,2-.1,3a2.34,2.34,0,0,1-1.38,2,3.09,3.09,0,0,1-1,.28,4.09,4.09,0,0,1-2-.2,2.5,2.5,0,0,1-1.51-1.66,5.43,5.43,0,0,1-.21-1.79V33.3Z"></path><path class="a374e726-6a46-4038-a984-28f10ed83965" d="M5.39,9.62c0-.13,0-.21,0-.29,0-2.43,0-4.86,0-7.29A1.34,1.34,0,0,1,6.74.66H11a1.29,1.29,0,0,1,1.3.87,1,1,0,0,1,.06.38c0,.51,0,1,0,1.52a.58.58,0,0,1-.17.35c-.75.66-1.52,1.3-2.27,2L6.53,8.68l-1,.84A.76.76,0,0,1,5.39,9.62Z"></path><path class="b3f2ce53-e8ae-4643-ad98-effe30559312" d="M28.53,33.35V27.14c0-.3,0-.34.32-.34H33.3c.19,0,.26.06.26.25,0,.37,0,.73,0,1.09,0,.2-.07.27-.27.27H30.77c-.21,0-.28.07-.28.28,0,1.16,0,2.32,0,3.48,0,.19.05.27.26.27h2.12c.2,0,.28,0,.27.26s0,.72,0,1.08c0,.19-.06.26-.26.26H30.83c-.34,0-.34,0-.34.32,0,1.76,0,3.51,0,5.27,0,.22-.08.3-.3.3-.42,0-.84,0-1.27,0s-.4,0-.4-.41V33.35Z"></path><path class="b3f2ce53-e8ae-4643-ad98-effe30559312" d="M301.78,15.55c1.53-2,3.22-3.16,5.61-3a5.81,5.81,0,0,1,5.09,3.67,6.92,6.92,0,0,0,.66-.73,5.7,5.7,0,0,1,6.59-2.77c2.83.62,4.33,2.4,4.47,5.57.29,6.21.12,12.45.11,18.68,0,2-1.59,1.25-2.61,1.38-1.22.15-2.05-.22-2-1.69,0-4.7,0-9.4,0-14.1a17.5,17.5,0,0,0-.16-3.33,3.3,3.3,0,0,0-3.43-2.65,3.9,3.9,0,0,0-3,3.63c-.09,4.05-.06,8.11-.08,12.16,0,1.41,0,2.82,0,4.23,0,1.77-1.14,1.75-2.38,1.78s-2.19-.22-2.17-1.8c0-5.29.11-10.58,0-15.87a4.89,4.89,0,0,0-1.31-3.39c-2.26-1.83-5.18-.08-5.25,3.1-.11,4.64-.06,9.28-.07,13.92v1.24c0,2.65-1.22,3.55-3.78,2.64a1.85,1.85,0,0,1-1-1.38c-.07-7.52-.07-15-.08-22.56,0-1.52,1.12-1.5,2.11-1.4s2.49-.62,2.31,1.41C301.32,14.59,301.55,14.9,301.78,15.55Z"></path><path class="b3f2ce53-e8ae-4643-ad98-effe30559312" d="M332.18,15.09a6.73,6.73,0,0,1,6.57-2.43c2.58.4,4.21,1.79,4.4,4.72a155,155,0,0,1,.06,15.84,5.4,5.4,0,0,1-4.15,5.31,5.52,5.52,0,0,1-6.27-2.05,2.16,2.16,0,0,0-.55-.42,2.56,2.56,0,0,0-.52-.11c-.17,1.69-.92,2.94-2.86,2.37a2.66,2.66,0,0,1-1.49-1.49,7.6,7.6,0,0,1-.08-2.44q0-14.72,0-29.42c0-.75.27-2.07.61-2.14a10.2,10.2,0,0,1,3.61.07c.24,0,.45,1,.46,1.52,0,2.82,0,5.64,0,8.46C332,13.49,332.09,14.09,332.18,15.09Zm6.65,10.66h0V23.29c0-.88,0-1.76,0-2.64,0-2.52-1.13-4-3.16-4.08a3.72,3.72,0,0,0-3.61,3.63,110.71,110.71,0,0,0,.05,11.23c.12,2.18,1.69,3.18,3.93,3,1.65-.11,2.69-1.34,2.77-3.45C338.89,29.27,338.83,27.51,338.83,25.75Z"></path><path class="b3f2ce53-e8ae-4643-ad98-effe30559312" d="M232,20.68c0-3.46-.23-6.95.06-10.38.37-4.46,1.72-6.2,5.94-7.44,3.1-.91,7.52.56,9.11,3.12,1.69,2.75,1.44,5.85,1.32,8.89,0,.29-.56.72-.92.8a12.22,12.22,0,0,1-1.92.05c-1.22.07-1.61-.49-1.65-1.69a28.9,28.9,0,0,0-.6-4.63,2.65,2.65,0,0,0-3.07-2.05c-1.49.08-3.11.69-3.13,2.5-.09,7.31-.07,14.62,0,21.93,0,1.75,1.56,2.29,3,2.44a2.79,2.79,0,0,0,3.2-1.93,28.67,28.67,0,0,0,.6-5.71c.09-2.39,1.87-3.57,4-2.47a1.09,1.09,0,0,1,.52.82,84,84,0,0,1-.54,8.55c-.74,4.86-6.63,5.9-9.92,5.05-4.07-1.06-5.74-3.42-5.94-8-.15-3.28,0-6.57,0-9.86Z"></path><path class="b3f2ce53-e8ae-4643-ad98-effe30559312" d="M163.1,25.62c0-1.94-.16-3.89,0-5.81.38-3.79,1.53-6.57,6.06-7.1,3.37-.4,6.73-.36,8.78,2.87a11.74,11.74,0,0,1,1.31,4.66c.22,1.56,0,3.17.1,4.75.11,1.4-.41,1.88-1.78,1.86-2.7-.06-5.4,0-8.1,0-1.46-.05-2.06.51-1.91,1.95a27,27,0,0,0,.28,3.13c.64,2.84,2.58,2.89,4.76,2.41,1.29-.29,1.67-1.47,1.82-2.73.24-2.11,1.07-2.59,3.63-2.13,1.85.32,1.25,1.79,1.07,2.79-.89,5-5.56,7.69-10.51,6.34-4-1.08-5.3-3.5-5.54-7.5-.11-1.82,0-3.64,0-5.46Zm8-2.3c3.74,0,3.93-.23,3.43-3.64a3.41,3.41,0,0,0-3.77-3.05c-2.13.25-3.32,2.25-3.1,5.28.17,2.32,2,1.08,3.09,1.4A1,1,0,0,0,171.06,23.32Z"></path><path class="b3f2ce53-e8ae-4643-ad98-effe30559312" d="M77.51,25.08c0-1.7,0-3.4,0-5.1.12-4.79,1.73-6.79,6.47-7.35,5.39-.64,9.55,1.46,9.4,7.85,0,1.58-.06,3.17,0,4.75.08,1.26-.45,1.65-1.64,1.63-2.7-.05-5.4,0-8.1-.05-1.16,0-1.77.35-1.64,1.63.09.93,0,1.88.07,2.82.08,2.05,1,3.07,2.72,3.2,2.21.16,3.69-.86,4-2.78.38-2.17,1.56-2.93,3.66-2.17A2,2,0,0,1,93.34,31c.36,6.73-5.68,8.65-10.63,7.51-3.43-.8-5.13-3.06-5.18-6.56,0-2.28,0-4.57,0-6.85Zm7.9-1.75c3.8,0,3.88,0,3.45-3.58a4.63,4.63,0,0,0-.07-.52,3.57,3.57,0,0,0-3.67-2.65,3.14,3.14,0,0,0-3,3.24C82,24.14,81.74,23.23,85.41,23.33Z"></path><path class="b3f2ce53-e8ae-4643-ad98-effe30559312" d="M218,35.82c-2.6,2.93-5.43,3.76-8.71,2.2a3.94,3.94,0,0,1-2-1.8,13.49,13.49,0,0,1-.07-9.31c.79-2.19,3-2.95,5.12-3.62a31.31,31.31,0,0,0,4.75-1.73,2.6,2.6,0,0,0,0-4.37c-2.65-1.67-5.24-.44-5.75,2.66A1.73,1.73,0,0,1,210.19,21c-3,.45-4.21-1.06-3-4a7.23,7.23,0,0,1,3-3.42,11.53,11.53,0,0,1,9.23-.36,4.62,4.62,0,0,1,3.25,4.57c0,6.34.09,12.67,0,19a2,2,0,0,1-1.22,1.48c-1.11.1-2.55.61-3.13-1.06C218.26,36.85,218.17,36.48,218,35.82Zm.21-7.16c0-3.91,0-3.93-3.71-2.72A7.76,7.76,0,0,0,212.3,27a2.28,2.28,0,0,0-.88,1.4,19.41,19.41,0,0,0-.08,4,2.39,2.39,0,0,0,1.07,1.64c3,1.42,6.06-.8,5.78-3.16A19.26,19.26,0,0,1,218.18,28.66Z"></path><path class="b3f2ce53-e8ae-4643-ad98-effe30559312" d="M126,25.61V20.33c0-6.67,4-8.19,9.15-7.71,4.83.45,6.7,2.78,6.76,7.7,0,1.64-.06,3.29,0,4.93.08,1.29-.5,1.63-1.65,1.61-2.76,0-5.52,0-8.28-.05-1.08,0-1.66.3-1.57,1.5.07.93,0,1.88,0,2.81a3.15,3.15,0,0,0,3.07,3.36c2.5.07,3.53-.79,3.74-3.12.18-1.91.72-2.2,3.19-2,1.55.15,1.44,1.12,1.43,2.27-.07,6.62-6.44,7.9-10.81,6.76-3.51-.91-4.9-2.76-5.08-7C125.88,29.49,126,27.55,126,25.61Zm7.89-2.28c3.4,0,3.4,0,3.41-2.12,0-3.08-1.07-4.58-3.33-4.6s-3.5,1.45-3.51,4.27C130.41,23.32,130.41,23.32,133.84,23.33Z"></path><path class="b3f2ce53-e8ae-4643-ad98-effe30559312" d="M365.29,35.69c-2.73,3.07-5.27,3.7-8.6,2.48-2.49-.91-2.62-3.1-3-5.14a12,12,0,0,1,0-3c.25-3.78,2.2-5.91,5.92-6.81a22.57,22.57,0,0,0,4.73-1.75,2.36,2.36,0,0,0,.73-3.49,3.38,3.38,0,0,0-3.89-1.34c-1.42.33-2.51,1-2.5,2.72,0,2.3-1.74,1.52-2.92,1.65-1.51.15-1.49-.88-1.47-2,.06-3.78,1.6-5.53,5.29-6.22a12,12,0,0,1,7.71.74A4.71,4.71,0,0,1,370,18.16c0,6.05,0,12.09,0,18.14,0,1,0,2.15-1.45,2.05-1.29-.07-3.06.51-3-1.85A2.66,2.66,0,0,0,365.29,35.69Zm.15-11.08c-1.89.68-3.46,1.12-4.93,1.79-2.09,1-2.91,5.63-1.38,7.39a1.93,1.93,0,0,0,.7.49c2.19.95,5.22-.38,5.55-2.71A53.12,53.12,0,0,0,365.44,24.61Z"></path><path class="b3f2ce53-e8ae-4643-ad98-effe30559312" d="M294.29,25.62c-.22,2.67-.31,5.36-.68,8-.49,3.55-3.22,4.66-6.27,5.08S280,38.13,279,35.35a9.39,9.39,0,0,1-.9-3.19c0-4.85,0-9.72.42-14.55.25-3,1.93-4.41,5-4.73a17.82,17.82,0,0,1,6.4.27c3,.8,3.93,3.48,4.15,6.3.16,2,0,4.1,0,6.15Zm-4.76,0,.27,0c-.27-2.36-.38-4.76-.86-7.07-.32-1.54-1.79-1.91-3.22-1.78s-2.82.77-2.87,2.34c-.12,4.37-.09,8.75,0,13.13.05,1.37,1.19,2.07,2.56,2.19,2.45.23,3.9-1,4.06-3.69C289.61,29,289.53,27.34,289.53,25.65Z"></path><path class="b3f2ce53-e8ae-4643-ad98-effe30559312" d="M144.92,19.59c0-3.93.06-7.87,0-11.8,0-1.58.56-2.07,2.06-2s2.6-.12,2.57,2c-.07,5.08,0,5.08,5.07,5.08,1.29,0,2.58,0,3.87,0s1.75.5,1.68,1.69.07,2.48-1.7,2.49c-2.35,0-4.7.09-7.05,0-1.43,0-2,.45-1.95,1.93.08,3.87,0,7.75.08,11.62.08,2.68,1.3,3.87,3.58,3.83a2.84,2.84,0,0,0,3-2.81c.08-2.06.08-4.11,0-6.17,0-1.31.54-1.76,1.8-1.72s2.3.1,2.23,1.73c-.12,2.64-.08,5.29-.38,7.9-.39,3.38-2,5.07-5.3,5.26a15.19,15.19,0,0,1-6.29-1c-2.42-1-3.1-3.46-3.18-5.85-.14-4.05,0-8.11,0-12.16Z"></path><path class="b3f2ce53-e8ae-4643-ad98-effe30559312" d="M267.71,25.69c-.35,3-.55,6-1.1,9a4.5,4.5,0,0,1-3.44,3.4,12,12,0,0,1-6.72.32c-3.15-.77-4.82-2.8-4.94-5.8-.19-4.73-.1-9.48.08-14.22a5.68,5.68,0,0,1,5.79-5.65,23.63,23.63,0,0,1,5.89.41c2.47.58,4,3.22,4.09,6.36.05,2.05,0,4.1,0,6.15ZM256,25.41h0c0,1.82-.11,3.65,0,5.46.08.93.35,2.24,1,2.64a5.6,5.6,0,0,0,3.54.72c1.6-.23,2.22-1.72,2.26-3.19.08-3.7.1-7.4,0-11.09a3.18,3.18,0,0,0-3.51-3.16c-2.07.07-3.19,1.15-3.28,3.34C255.93,21.89,256,23.65,256,25.41Z"></path><path class="b3f2ce53-e8ae-4643-ad98-effe30559312" d="M63,20.55c0-5.16,0-10.33,0-15.49,0-1.54.52-2.09,2-2,3.11.08,6.23.11,9.33,0C76.17,3,76,4.08,76.08,5.31s-.21,2.17-1.8,2.08-2.94,0-4.4,0-2.29.53-2.22,2.17c.09,2.29.08,4.58,0,6.87,0,1.33.57,1.78,1.8,1.73s2.59,0,3.88,0c2.13.05,1.41,1.73,1.58,2.88s-.61,1.5-1.61,1.51c-1.17,0-2.35.07-3.52,0-1.57-.13-2.2.42-2.16,2.08.09,3.87,0,7.75.07,11.62,0,1.79-.71,2.19-2.31,2.18s-2.53-.19-2.48-2.17C63.05,31,63,25.78,63,20.55Z"></path><path class="b3f2ce53-e8ae-4643-ad98-effe30559312" d="M269.9,20.81c0-5.46,0-10.92,0-16.38,0-1.49.48-1.93,1.94-1.88,3.77.14,3.34-.44,3.35,3.45,0,10.39,0,20.78,0,31.18,0,1.29-.34,1.79-1.68,1.74-4.18-.15-3.59.59-3.61-3.49C269.88,30.56,269.9,25.68,269.9,20.81Z"></path><path class="b3f2ce53-e8ae-4643-ad98-effe30559312" d="M187,16.09a6.59,6.59,0,0,1,1.07-1.26,12,12,0,0,1,3.31-2.08c2.54-.75,3.7.4,3.21,3a1.76,1.76,0,0,1-1.31,1.1c-3.56-.19-5.44,1.13-6,4.62a31.93,31.93,0,0,0-.29,4.9c0,3.29,0,6.58,0,9.86,0,1.86-.38,2.08-2.58,2.12-1.48,0-2.29-.34-2.27-2.06.07-7.16.08-14.32,0-21.48,0-1.83.86-2,2.27-2s2.46.22,2.18,2a5.15,5.15,0,0,0,.07,1Z"></path><path class="b3f2ce53-e8ae-4643-ad98-effe30559312" d="M115.81,16c1.41-1.83,2.79-3.49,5.27-3.36.78,0,2,.37,2.21.86a8.74,8.74,0,0,1,0,3.26c0,.12-.48.29-.73.29-4.9,0-6.74,1.88-6.77,6.84,0,4.16-.1,8.33,0,12.49.07,2-1,2-2.4,2s-2.21-.4-2.19-2.09c.07-7.15,0-14.3,0-21.46,0-1.16,0-2.14,1.61-2,1.33.14,3-.42,2.84,1.94A6.2,6.2,0,0,0,115.81,16Z"></path><path class="b3f2ce53-e8ae-4643-ad98-effe30559312" d="M101.14,16c1.52-2.5,3.45-3.66,6.15-3.32.53.07,1.38.6,1.42,1a13.78,13.78,0,0,1-.24,3.25c0,.09-.53.16-.8.14-4.28-.29-6.49,1.73-6.55,6.16s-.07,8.69,0,13c0,1.6-.47,2.23-2.12,2.13-1.47-.08-2.55,0-2.51-2.1.14-7.23.09-14.46,0-21.68,0-1.32.38-1.9,1.69-1.72,1.12.16,2.82-.63,2.76,1.62A9.61,9.61,0,0,0,101.14,16Z"></path><path class="b3f2ce53-e8ae-4643-ad98-effe30559312" d="M201.7,25.39c0,3.64,0,7.27,0,10.91,0,1.84-.37,2-2.62,2.07-1.49,0-2.28-.38-2.27-2.08.06-7.16.07-14.32,0-21.48,0-1.81.85-2,2.28-1.93s2.74-.31,2.64,1.95c-.16,3.51,0,7,0,10.56Z"></path><path class="b3f2ce53-e8ae-4643-ad98-effe30559312" d="M346.57,25.57c0-3.64.05-7.28,0-10.92,0-1.27.3-1.78,1.66-1.79,2.91,0,2.89-.09,2.89,2.85q0,10.13,0,20.26a2.47,2.47,0,0,1-3.91,2.18,2.26,2.26,0,0,1-.59-1.65C346.55,32.85,346.58,29.21,346.57,25.57Z"></path><path class="b3f2ce53-e8ae-4643-ad98-effe30559312" d="M197.37,11.3c-.34-.29-.92-.58-1.15-1.05a1.55,1.55,0,0,1,.2-1.38c2.06-2.33,4.16-4.63,6.34-6.85a1.64,1.64,0,0,1,1.57-.1c.53.71,1.32,2.14,1.08,2.38-2.33,2.39-4.85,4.59-7.33,6.84C198,11.24,197.75,11.22,197.37,11.3Z"></path><path class="b3f2ce53-e8ae-4643-ad98-effe30559312" d="M346.58,6.86c0-2.88,0-2.76,2.36-2.91,1.78-.1,2.31.62,2.16,2.24a11.31,11.31,0,0,0,0,1.93c.09,1.23-.46,1.61-1.66,1.6C346.59,9.68,346.59,9.73,346.58,6.86Z"></path></g></g></svg>